<svg xmlns="http://www.w3.org/2000/svg" viewBox="0 0 1490.92 1108.56"><defs><style>.cls-1{fill:#f1deb7;}.cls-1,.cls-2,.cls-3,.cls-4,.cls-5{stroke:#000;stroke-miterlimit:10;stroke-width:9px;}.cls-2{fill:#ff0;}.cls-3{fill:#8b6c4f;}.cls-4{fill:none;}.cls-5{fill:#e09078;}</style></defs><title>Asset 2</title><g id="Layer_2" data-name="Layer 2"><g id="Layer_1-2" data-name="Layer 1"><path class="cls-1" d="M1484.64,653.31c-42.5-413.5-421.5-684.5-889-645-436,0-596.5,286.5-591,507,56.5,495.5,663.5,594.5,760.5,588.5,81,0,201.5-23.5,201.5-95.5s-57.5-89.5-57.5-132.5c-6-53,75-81,114-71,117,11,167.51,76.61,209.79,119.09,42.84,43.05,105.21,33.91,155.76.53C1432.14,886.81,1498.14,868.81,1484.64,653.31Zm-144.77,23.57c-7.19,59.94-58.29,71.93-139.07,71.93-71.29,0-125.07-61.33-136.71-115.57a63,63,0,0,1,10.6-50.69c32-43.28,114.17-67.81,182.46-35.15C1333.88,589.36,1346.77,619.36,1339.87,676.88Z"/><path class="cls-2" d="M931.14,219.81c-35.55,56.33-97.8,24.19-206,94-77.41,49.94-64.47,78.6-122,97-76.19,24.37-124.95-17.55-191,20-31.67,18-35.47,36.18-59,59-84.06,81.52-280.52,87.12-341,8a92.94,92.94,0,0,1-7.29-11.09c6.51-165.16,104.57-357.64,337.21-439C413.48,22.8,497.6,8.31,595.64,8.31,703.9-.84,807.41,6.67,903.09,28.74l.05.07C940.68,79.22,966,164.63,931.14,219.81Z"/><path class="cls-3" d="M931.14,219.81c-35.55,56.33-97.8,24.19-206,94-77.41,49.94-64.47,78.6-122,97-76.19,24.37-124.95-17.55-191,20-31.67,18-35.47,36.18-59,59-84.06,81.52-280.52,87.12-341,8a92.94,92.94,0,0,1-7.29-11.09c6.51-165.16,104.57-357.64,337.21-439C413.48,22.8,497.6,8.31,595.64,8.31,703.9-.84,807.41,6.67,903.09,28.74l.05.07C940.68,79.22,966,164.63,931.14,219.81Z"/><path class="cls-4" d="M909.14,875.81c-2.32-20.5,8.37-37.26,24.62-49.53q-4.14-8.09-8.62-16.47c-22.95-42.88-52.82-98.69-93-141-67.65-71.23-109.38-46.13-137-98-30.75-57.75,14.78-100.55,0-171a153.1,153.1,0,0,0-18.77-47.35c-27.1,27.18-32.53,45.33-73.23,58.35-76.19,24.37-124.95-17.55-191,20-31.67,18-35.47,36.18-59,59-84.06,81.52-280.52,87.12-341,8a91.55,91.55,0,0,1-7.28-11.08q-.58,14.45-.22,28.58c56.5,495.5,663.5,594.5,760.5,588.5,81,0,201.5-23.5,201.5-95.5S909.14,918.81,909.14,875.81Z"/><path class="cls-5" d="M966.64,1008.31c0,72-120.5,95.5-201.5,95.5-97,6-704-93-760.5-588.5q-.34-14.13.22-28.58a91.55,91.55,0,0,0,7.28,11.08c60.48,79.12,256.94,73.52,341-8,23.53-22.82,27.33-41,59-59,66.05-37.55,114.81,4.37,191-20,40.7-13,46.13-31.17,73.23-58.35a153.1,153.1,0,0,1,18.77,47.35c14.78,70.45-30.75,113.25,0,171,27.62,51.87,69.35,26.77,137,98,40.18,42.31,70.05,98.12,93,141q4.5,8.4,8.62,16.47c-16.25,12.27-26.94,29-24.62,49.53C909.14,918.81,966.64,936.31,966.64,1008.31Z"/></g></g></svg>